# File created by Blade
# Date/Time:  Thu Sep 25 18:39:44 2014
# Frame Rate: 120.000 fps
#------------------------------------------------------
:FULLY-SPECIFIED
:DEGREES
979
root -0.956955 33.191380 -2.091999 6.855137 3.303478 -0.635710
Spine -12.390122 4.327978 -1.768635
Head 7.935876 4.225968 10.152433
LeftShoulder -18.266539 1.491199 38.978113
LeftArm 171.102886 -36.561813 -115.648621
LeftForeArm -44.172421 0.000000 143.122754
LeftHand -5.821153 -0.000000 -11.036007
LeftHandThumb1 -26.253704 0.000000 33.147579
RightShoulder -17.008170 25.207562 -51.123006
RightArm 63.101520 43.102355 46.488106
RightForeArm 62.346700 -0.000000 99.753642
RightHand 2.734064 -0.000000 7.217802
RightHandThumb1 -24.326973 -0.000000 -32.862282
LeftUpLeg 0.585436 6.637547 1.845960
LeftLeg -1.597727 -0.000000 0.000000
LeftFoot -7.714723 1.393825 -11.442816
LeftToeBase 9.928575 -0.000000 -0.000000
RightUpLeg -0.141652 -6.852730 -0.011507
RightLeg 0.265108 -0.000000 -0.000000
RightFoot -6.420850 -1.593372 0.526727
RightToeBase -1.065171 -0.000000 0.000000
980
root -0.954814 33.191132 -2.094452 6.886062 3.313778 -0.633639
Spine -12.411002 4.348644 -1.785542
Head 7.757271 4.189633 10.172867
LeftShoulder -18.293227 1.296036 39.062021
LeftArm 171.031079 -36.460117 -115.563664
LeftForeArm -43.994860 0.000000 143.224994
LeftHand -5.803290 -0.000000 -11.387516
LeftHandThumb1 -26.253704 0.000000 33.147579
RightShoulder -17.039932 25.410460 -51.239723
RightArm 62.849045 43.073508 46.488211
RightForeArm 62.223339 -0.000000 99.849869
RightHand 2.790491 -0.000000 7.364118
RightHandThumb1 -24.326973 -0.000000 -32.862282
LeftUpLeg 0.553503 6.642254 1.830874
LeftLeg -1.601531 -0.000000 0.000000
LeftFoot -7.735391 1.412677 -11.476041
LeftToeBase 9.978852 -0.000000 -0.000000
RightUpLeg -0.163725 -6.888343 -0.012686
RightLeg 0.239729 -0.000000 -0.000000
RightFoot -6.409135 -1.561912 0.539876
RightToeBase -1.072766 -0.000000 0.000000
981
root -0.954389 33.191710 -2.096721 6.912903 3.320426 -0.640264
Spine -12.430206 4.356179 -1.801539
Head 7.582749 4.195035 10.220436
LeftShoulder -18.311453 1.062586 39.189598
LeftArm 170.939704 -36.432204 -115.552824
LeftForeArm -43.878503 -0.000000 143.321762
LeftHand -5.807205 -0.000000 -11.655711
LeftHandThumb1 -26.253704 0.000000 33.147579
RightShoulder -17.016652 25.515934 -51.225681
RightArm 62.731187 43.122766 46.475259
RightForeArm 62.101387 0.000000 99.921806
RightHand 2.810399 0.000000 7.335218
RightHandThumb1 -24.326973 -0.000000 -32.862282
LeftUpLeg 0.532884 6.629122 1.833635
LeftLeg -1.624215 -0.000000 0.000000
LeftFoot -7.714017 1.414901 -11.532829
LeftToeBase 9.981112 -0.000000 -0.000000
RightUpLeg -0.184491 -6.918855 -0.003877
RightLeg 0.218709 -0.000000 -0.000000
RightFoot -6.393620 -1.525879 0.559395
RightToeBase -1.052808 -0.000000 0.000000
982
root -0.952676 33.192821 -2.097644 6.937805 3.336537 -0.635040
Spine -12.453562 4.382694 -1.824796
Head 7.416501 4.205027 10.246736
LeftShoulder -18.277570 0.748586 39.317291
LeftArm 170.751015 -36.405351 -115.473302
LeftForeArm -43.678770 -0.000000 143.370877
LeftHand -5.680986 -0.000000 -12.065315
LeftHandThumb1 -26.253704 0.000000 33.147579
RightShoulder -17.024874 25.579957 -51.250409
RightArm 62.630873 43.141499 46.493680
RightForeArm 62.000376 0.000000 99.999280
RightHand 2.766082 -0.000000 7.363653
RightHandThumb1 -24.326973 -0.000000 -32.862282
LeftUpLeg 0.511854 6.616321 1.831060
LeftLeg -1.644539 -0.000000 0.000000
LeftFoot -7.671337 1.388673 -11.429162
LeftToeBase 9.912108 -0.000000 -0.000000
RightUpLeg -0.227319 -7.034224 -0.003566
RightLeg 0.251992 -0.000000 -0.000000
RightFoot -6.391885 -1.447587 0.521136
RightToeBase -1.076795 -0.000000 0.000000
983
root -0.952889 33.193508 -2.100118 6.963691 3.346324 -0.638999
Spine -12.461894 4.395922 -1.837984
Head 7.220509 4.265698 10.252215
LeftShoulder -18.277895 0.532372 39.395904
LeftArm 170.648726 -36.332948 -115.421663
LeftForeArm -43.516540 -0.000000 143.405138
LeftHand -5.535874 -0.000000 -12.407982
LeftHandThumb1 -26.253704 0.000000 33.147579
RightShoulder -17.035793 25.685040 -51.263502
RightArm 62.489069 43.155880 46.436256
RightForeArm 61.940324 -0.000000 100.067613
RightHand 2.776126 -0.000000 7.260402
RightHandThumb1 -24.326973 -0.000000 -32.862282
LeftUpLeg 0.484205 6.624018 1.826928
LeftLeg -1.651048 -0.000000 0.000000
LeftFoot -7.679209 1.405053 -11.521382
LeftToeBase 9.991950 -0.000000 -0.000000
RightUpLeg -0.221972 -6.990378 -0.000232
RightLeg 0.180091 -0.000000 -0.000000
RightFoot -6.351694 -1.472955 0.571311
RightToeBase -1.060596 -0.000000 0.000000
984
root -0.953114 33.194136 -2.102486 6.994663 3.366517 -0.640208
Spine -12.498330 4.398559 -1.871420
Head 7.072826 4.329980 10.329171
LeftShoulder -18.256130 0.399607 39.461289
LeftArm 170.607151 -36.272294 -115.397293
LeftForeArm -43.387082 -0.000000 143.436840
LeftHand -5.486483 -0.000000 -12.603537
LeftHandThumb1 -26.253704 0.000000 33.147579
RightShoulder -16.999598 25.761848 -51.239887
RightArm 62.278438 43.200323 46.296433
RightForeArm 61.881986 -0.000000 100.156557
RightHand 2.790291 -0.000000 7.172688
RightHandThumb1 -24.326973 -0.000000 -32.862282
LeftUpLeg 0.444070 6.614012 1.826957
LeftLeg -1.647248 -0.000000 0.000000
LeftFoot -7.667161 1.389891 -11.511517
LeftToeBase 9.965538 -0.000000 -0.000000
RightUpLeg -0.247258 -7.016870 0.007463
RightLeg 0.161287 -0.000000 -0.000000
RightFoot -6.335315 -1.452566 0.582399
RightToeBase -1.059909 -0.000000 0.000000
985
root -0.953720 33.194793 -2.104747 7.013040 3.381779 -0.639735
Spine -12.492651 4.391633 -1.902664
Head 6.858310 4.398624 10.386821
LeftShoulder -18.290087 0.212513 39.520919
LeftArm 170.483270 -36.178551 -115.293771
LeftForeArm -43.290729 -0.000000 143.455701
LeftHand -5.528608 -0.000000 -12.907437
LeftHandThumb1 -26.253704 0.000000 33.147579
RightShoulder -17.023178 25.960012 -51.303196
RightArm 61.973033 43.151818 46.173097
RightForeArm 61.831507 -0.000000 100.277857
RightHand 2.705697 -0.000000 7.120879
RightHandThumb1 -24.326973 -0.000000 -32.862282
LeftUpLeg 0.418278 6.620564 1.826802
LeftLeg -1.645516 -0.000000 0.000000
LeftFoot -7.663045 1.372116 -11.513674
LeftToeBase 9.995852 -0.000000 -0.000000
RightUpLeg -0.267689 -7.053095 0.012903
RightLeg 0.158376 -0.000000 -0.000000
RightFoot -6.325216 -1.444363 0.560360
RightToeBase -1.064054 -0.000000 0.000000
986
root -0.954062 33.195398 -2.107418 7.037256 3.396780 -0.636379
Spine -12.498213 4.389164 -1.935805
Head 6.677222 4.442395 10.462115
LeftShoulder -18.301508 0.032307 39.580684
LeftArm 170.381171 -36.095989 -115.216448
LeftForeArm -43.195113 -0.000000 143.460683
LeftHand -5.571765 -0.000000 -13.235236
LeftHandThumb1 -26.253704 0.000000 33.147579
RightShoulder -17.044931 26.007289 -51.282979
RightArm 61.889718 43.163111 46.127236
RightForeArm 61.787021 -0.000000 100.307732
RightHand 2.738193 -0.000000 7.111120
RightHandThumb1 -24.326973 -0.000000 -32.862282
LeftUpLeg 0.387258 6.617655 1.823319
LeftLeg -1.644061 -0.000000 0.000000
LeftFoot -7.653406 1.357585 -11.511893
LeftToeBase 9.990959 -0.000000 -0.000000
RightUpLeg -0.296789 -7.069688 0.014609
RightLeg 0.162532 -0.000000 -0.000000
RightFoot -6.313546 -1.443863 0.548516
RightToeBase -1.118648 -0.000000 0.000000
987
root -0.955942 33.195336 -2.110957 7.065968 3.419873 -0.637303
Spine -12.511079 4.367236 -1.969693
Head 6.506192 4.516063 10.535156
LeftShoulder -18.313759 -0.143772 39.646744
LeftArm 170.283512 -36.071329 -115.128781
LeftForeArm -43.061023 -0.000000 143.447162
LeftHand -5.559130 -0.000000 -13.509656
LeftHandThumb1 -26.253704 0.000000 33.147579
RightShoulder -17.037495 26.079619 -51.264286
RightArm 61.734102 43.209505 46.031229
RightForeArm 61.721004 -0.000000 100.372353
RightHand 2.793257 -0.000000 7.137507
RightHandThumb1 -24.326973 -0.000000 -32.862282
LeftUpLeg 0.346376 6.587197 1.825864
LeftLeg -1.640763 -0.000000 0.000000
LeftFoot -7.652011 1.367832 -11.514459
LeftToeBase 10.026706 -0.000000 -0.000000
RightUpLeg -0.330634 -7.076561 0.026099
RightLeg 0.163597 -0.000000 -0.000000
RightFoot -6.324658 -1.459606 0.564569
RightToeBase -1.055621 -0.000000 0.000000
988
root -0.957795 33.194733 -2.114386 7.089125 3.447680 -0.637138
Spine -12.518043 4.352542 -2.007518
Head 6.364874 4.587851 10.618764
LeftShoulder -18.313915 -0.307049 39.709271
LeftArm 170.220504 -36.097892 -115.063940
LeftForeArm -42.931064 -0.000000 143.447646
LeftHand -5.505496 -0.000000 -13.730729
LeftHandThumb1 -26.253704 0.000000 33.147579
RightShoulder -17.063729 26.207988 -51.315217
RightArm 61.501809 43.188505 45.958720
RightForeArm 61.605318 0.000000 100.471715
RightHand 2.749455 -0.000000 7.076780
RightHandThumb1 -24.326973 -0.000000 -32.862282
LeftUpLeg 0.309952 6.575184 1.829464
LeftLeg -1.632216 -0.000000 0.000000
LeftFoot -7.646763 1.346609 -11.534237
LeftToeBase 9.953185 -0.000000 -0.000000
RightUpLeg -0.358531 -7.081081 0.036058
RightLeg 0.165442 -0.000000 -0.000000
RightFoot -6.325806 -1.488687 0.561301
RightToeBase -1.083758 -0.000000 0.000000
